<?xml version="1.0" encoding="iso-8859-1"?>
<!-- Generator: Adobe Illustrator 19.0.0, SVG Export Plug-In . SVG Version: 6.00 Build 0)  -->
<svg version="1.1" id="Capa_1" xmlns="http://www.w3.org/2000/svg" xmlns:xlink="http://www.w3.org/1999/xlink" x="0px" y="0px"
	 viewBox="0 0 512.012 512.012" style="enable-background:new 0 0 512.012 512.012;" xml:space="preserve">
<g>
	<g>
		<path d="M439.483,128.018c-18.824,0-34.133,15.309-34.133,34.133s15.309,34.133,34.133,34.133
			c18.816,0,34.133-15.309,34.133-34.133S458.307,128.018,439.483,128.018z M439.483,179.217c-9.412,0-17.066-7.654-17.066-17.066
			s7.654-17.066,17.066-17.066c9.412,0,17.066,7.654,17.066,17.066S448.895,179.217,439.483,179.217z"/>
	</g>
</g>
<g>
	<g>
		<path d="M439.483,247.483c-18.824,0-34.133,15.309-34.133,34.133c0,18.824,15.309,34.133,34.133,34.133
			c18.816,0,34.133-15.309,34.133-34.133S458.307,247.483,439.483,247.483z M439.483,298.682c-9.412,0-17.066-7.654-17.066-17.066
			c0-9.412,7.654-17.066,17.066-17.066c9.412,0,17.066,7.654,17.066,17.066C456.549,291.028,448.895,298.682,439.483,298.682z"/>
	</g>
</g>
<g>
	<g>
		<path d="M292.226,54.821c-5.461-5.931-11.426-11.648-17.698-16.99c-31.317-26.658-74-40.644-114.166-37.358
			c-33.612,2.731-62.25,16.998-82.823,41.258c-26.555,31.317-49.501,82.576-34.261,132.546
			c13.397,43.92,59.203,77.635,108.926,80.152c19.464,0.964,36.181-3.191,48.4-12.074c11.204-8.141,18.824-21.256,20.906-35.959
			c2.074-14.634-1.579-29.252-10.018-40.097c-9.122-11.733-22.835-19.498-37.623-21.299c-13.474-1.681-26.496,1.869-36.667,9.873
			c-1.365,1.075-2.705,2.227-4.045,3.388c-3.405,2.944-6.622,5.734-9.549,6.093c-3.789,0.461-6.596-0.486-9.096-3.089
			c-7.774-8.089-9.48-28.612-7.697-39.705c4.753-29.448,34.141-61.251,66.388-59.493c23.279,1.195,48.221,14.805,68.445,37.358
			c88.907,99.147,6.007,247.172-79.188,353.897c-10.496,13.15-22.246,27.323-36.974,44.603c0,0.009-0.009,0.009-0.009,0.017
			c-3.063,3.584-2.628,8.977,0.956,12.032c1.604,1.365,3.575,2.039,5.529,2.039c2.406,0,4.813-1.015,6.502-3.012
			c0.009-0.009,0.017-0.017,0.017-0.026c3.729-4.335,24.635-18.449,38.476-27.801c11.417-7.714,21.282-14.37,25.804-18.09
			c21.777-17.911,42.248-37.307,60.825-57.65C347.845,313.197,382.754,152.927,292.226,54.821z M250.985,393.938
			c-18.039,19.737-37.913,38.579-59.067,55.978c-2.227,1.826-6.434,4.813-11.605,8.363
			C304.505,300.466,330.122,172.536,254.355,88.04c-23.236-25.915-52.505-41.582-80.28-43.007c-1.118-0.06-2.227-0.085-3.336-0.085
			c-40.746,0-75.015,38.22-80.75,73.923c-2.219,13.738-0.853,40.618,12.245,54.245c6.212,6.468,14.319,9.284,23.449,8.209
			c8.107-0.981,13.969-6.059,18.671-10.146c1.135-0.981,2.27-1.971,3.422-2.876c6.571-5.171,15.104-7.415,24.038-6.34
			c10.308,1.254,19.865,6.656,26.223,14.831c5.615,7.228,8.021,17.143,6.596,27.229c-1.434,10.155-6.553,19.097-14.046,24.55
			c-11.4,8.294-26.675,9.369-37.495,8.832c-42.794-2.176-82.098-30.805-93.473-68.086C46.368,125.911,66.924,80.668,90.561,52.79
			c17.578-20.727,42.197-32.938,71.184-35.293c35.763-2.859,73.778,9.557,101.716,33.339c5.751,4.907,11.213,10.146,16.222,15.573
			C363.649,157.398,330.164,307.267,250.985,393.938z"/>
	</g>
</g>
<g>
</g>
<g>
</g>
<g>
</g>
<g>
</g>
<g>
</g>
<g>
</g>
<g>
</g>
<g>
</g>
<g>
</g>
<g>
</g>
<g>
</g>
<g>
</g>
<g>
</g>
<g>
</g>
<g>
</g>
</svg>
