<?xml version="1.0" encoding="utf-8"?>
<!-- Generator: Adobe Illustrator 25.2.3, SVG Export Plug-In . SVG Version: 6.00 Build 0)  -->
<svg version="1.1" xmlns="http://www.w3.org/2000/svg" xmlns:xlink="http://www.w3.org/1999/xlink" x="0px" y="0px"
	 viewBox="0 0 512 512" style="enable-background:new 0 0 512 512;" xml:space="preserve">
<style type="text/css">
	.st0{fill:#FFFFFF;}
	.st1{fill:#E9CA20;}
	.st2{fill:#29296F;}
</style>
<g id="Capa_1">
	<g>
		<path class="st0" d="M403.9,302.5c53-71.8,47-173.6-18.1-238.6c-71.6-71.6-188-71.6-259.6,0c-65,65-71.1,166.8-18.1,238.6
			l139.6,194.2c4.1,5.7,12.5,5.7,16.6,0L403.9,302.5z"/>
		<circle class="st0" cx="256" cy="193.7" r="142.8"/>
		<path class="st0" d="M281.4,202.2c-12.8,7.4-18.4,21.5-12.7,31.5c5.8,10,20.7,12.1,33.5,4.7c12.8-7.4,18.4-21.5,12.7-31.5
			C309.2,196.9,294.2,194.8,281.4,202.2L281.4,202.2z M190,226.1c-12.8,7.4-18.4,21.5-12.7,31.5s20.7,12.1,33.5,4.7
			c12.8-7.4,18.4-21.5,12.7-31.5C217.7,220.8,202.7,218.7,190,226.1L190,226.1z M225.7,129.8v41.5l91.5-17.7v-41.5L225.7,129.8z"/>
		<path class="st1" d="M256,40.7c-84.4,0-153,68.6-153,153c0,84.4,68.6,153,153,153c84.4,0,153-68.6,153-153
			C409,109.4,340.4,40.7,256,40.7z M256,326.3c-73.1,0-132.6-59.5-132.6-132.6S182.9,61.1,256,61.1s132.6,59.5,132.6,132.6
			S329.1,326.3,256,326.3z"/>
		<path class="st1" d="M315.3,102.1l-91.5,17.7c-4.8,0.9-8.3,5.1-8.3,10v83.1c-9.4-2.7-20.6-1.5-30.6,4.3
			c-17.6,10.2-25,30.6-16.4,45.5c8.6,14.9,29.8,18.7,47.4,8.5c12.6-7.3,20-19.9,20-31.9l0-59.5L307,166v23
			c-9.4-2.7-20.6-1.5-30.6,4.3c-17.6,10.2-25,30.6-16.4,45.5s29.8,18.7,47.4,8.5c12.6-7.3,19.9-19.8,20-31.7l0-103.5
			C327.4,105.7,321.5,100.9,315.3,102.1z M205.7,253.5c-7.9,4.6-16.6,4.1-19.5-1c-2.9-5.1,1.1-13,8.9-17.6c7.9-4.6,16.6-4.1,19.5,1
			C217.5,241.1,213.6,248.9,205.7,253.5z M235.9,159v-20.8l71.1-13.8v20.8L235.9,159z M297.2,229.6c-7.9,4.6-16.6,4.1-19.5-1
			c-2.9-5.1,1.1-13,8.9-17.6c7.9-4.6,16.6-4.1,19.5,1C309,217.2,305,225.1,297.2,229.6z"/>
		<path class="st2" d="M304.9,6.2c-12.9-3.3-18,16.4-5.1,19.7c74.5,19.5,129.6,87.3,129.6,167.8c0,38.4-12.6,73.9-33.8,102.7
			L256,490.7L116.4,296.4c-21.2-28.8-33.8-64.3-33.8-102.7c0-81.1,56-149.4,131.3-168.2c12.5-3.1,7.6-22.9-4.9-19.8
			c-84.2,21-146.8,97.4-146.8,188c0,42.9,14,82.6,37.7,114.8l139.5,194.2c8.6,11.3,24.5,11.6,33.1,0l139.5-194.2
			c23.7-32.1,37.7-71.8,37.7-114.7C449.8,103.8,388.2,27.9,304.9,6.2L304.9,6.2z"/>
		<circle class="st2" cx="257" cy="10.2" r="10.2"/>
	</g>
</g>
<g id="Слой_2">
</g>
</svg>
