<?xml version="1.0" encoding="iso-8859-1"?>
<!-- Generator: Adobe Illustrator 19.0.0, SVG Export Plug-In . SVG Version: 6.00 Build 0)  -->
<svg version="1.1" id="Capa_1" xmlns="http://www.w3.org/2000/svg" xmlns:xlink="http://www.w3.org/1999/xlink" x="0px" y="0px"
	 viewBox="0 0 512 512" style="enable-background:new 0 0 512 512;" xml:space="preserve">
<g>
	<g>
		<path d="M102.4,273.067C45.935,273.067,0,309.436,0,354.133C0,398.831,45.935,435.2,102.4,435.2
			c56.465,0,102.4-36.369,102.4-81.067C204.8,309.436,158.865,273.067,102.4,273.067z M102.4,418.133
			c-47.053,0-85.333-28.706-85.333-64s38.281-64,85.333-64s85.333,28.706,85.333,64S149.453,418.133,102.4,418.133z"/>
	</g>
</g>
<g>
	<g>
		<path d="M196.267,0c-4.71,0-8.533,3.823-8.533,8.533v341.333c0,4.71,3.823,8.533,8.533,8.533s8.533-3.823,8.533-8.533V8.533
			C204.8,3.823,200.977,0,196.267,0z"/>
	</g>
</g>
<g>
	<g>
		<path d="M409.6,349.867c-56.465,0-102.4,36.369-102.4,81.067S353.135,512,409.6,512S512,475.631,512,430.933
			S466.065,349.867,409.6,349.867z M409.6,494.933c-47.053,0-85.333-28.706-85.333-64s38.281-64,85.333-64s85.333,28.706,85.333,64
			S456.653,494.933,409.6,494.933z"/>
	</g>
</g>
<g>
	<g>
		<path d="M503.467,76.8c-4.71,0-8.533,3.823-8.533,8.533v341.333c0,4.71,3.823,8.533,8.533,8.533s8.533-3.823,8.533-8.533V85.333
			C512,80.623,508.177,76.8,503.467,76.8z"/>
	</g>
</g>
<g>
	<g>
		<path d="M505.54,77.056l-307.2-76.8c-2.543-0.631-5.248-0.06-7.322,1.553s-3.285,4.096-3.285,6.724v110.933
			c0,3.917,2.662,7.33,6.468,8.277l307.2,76.8c0.683,0.171,1.374,0.256,2.065,0.256c1.886,0,3.738-0.623,5.248-1.809
			c2.074-1.613,3.285-4.096,3.285-6.724V85.333C512,81.417,509.338,78.003,505.54,77.056z M494.933,185.335L204.8,112.802V19.465
			l290.133,72.533V185.335z"/>
	</g>
</g>
<g>
</g>
<g>
</g>
<g>
</g>
<g>
</g>
<g>
</g>
<g>
</g>
<g>
</g>
<g>
</g>
<g>
</g>
<g>
</g>
<g>
</g>
<g>
</g>
<g>
</g>
<g>
</g>
<g>
</g>
</svg>
