<svg id="Capa_1" enable-background="new 0 0 501.266 501.266" height="512" viewBox="0 0 501.266 501.266" width="512" xmlns="http://www.w3.org/2000/svg"><g><path d="m250.633 39.931c-82.71 0-150 67.29-150 150s67.29 150 150 150 150-67.29 150-150-67.29-150-150-150zm0 280c-71.683 0-130-58.317-130-130s58.317-130 130-130 130 58.317 130 130-58.317 130-130 130zm58.095-219.793-89.674 17.356c-4.702.911-8.098 5.028-8.098 9.817v81.431c-9.196-2.691-20.196-1.45-30.05 4.263-17.279 10.018-24.476 29.977-16.076 44.578s29.217 18.316 46.496 8.298c12.4-7.19 19.607-19.498 19.584-31.273l.046-58.316 69.677-13.507v22.563c-9.196-2.691-20.197-1.451-30.05 4.262-17.279 10.018-24.476 29.977-16.076 44.578s29.217 18.316 46.496 8.298c12.334-7.151 19.525-19.367 19.579-31.084l.045-101.444c.003-6.285-5.727-11.014-11.899-9.82zm-107.406 148.426c-7.698 4.483-16.269 4.032-19.144-1.005-2.875-5.038 1.034-12.756 8.732-17.238 7.698-4.483 16.269-4.032 19.144 1.005 2.875 5.038-1.034 12.756-8.732 17.238zm29.634-92.643v-20.361l69.677-13.505v20.358zm60.043 69.249c-7.698 4.483-16.269 4.032-19.144-1.005-2.875-5.038 1.034-12.756 8.732-17.238 7.698-4.483 16.269-4.032 19.144 1.005 2.875 5.038-1.035 12.756-8.732 17.238zm7.615-219.104c-12.667-3.284-17.687 16.078-5.02 19.362 73.006 19.08 127.039 85.6 127.039 164.502 0 37.657-12.307 72.493-33.111 100.698l-136.889 190.532-136.889-190.531c-20.803-28.205-33.111-63.041-33.111-100.698 0-79.531 54.897-146.482 128.788-164.949 12.237-3.039 7.416-22.452-4.821-19.413-82.598 20.63-143.967 95.464-143.967 184.362 0 42.079 13.75 81.007 36.993 112.527l136.767 190.372c8.402 11.101 23.982 11.391 32.48.011l136.814-190.447c23.215-31.509 36.946-70.413 36.946-112.464 0-88.197-60.406-162.551-142.019-183.864zm-47.021 13.934c5.523 0 10-4.477 10-10s-4.477-10-10-10-10 4.477-10 10 4.477 10 10 10z"/></g></svg>