<svg xmlns="http://www.w3.org/2000/svg" width="18.22" height="18.124" viewBox="0 0 18.22 18.124" fill="none">
  <defs>
    <style>
      .cls-1 {
        stroke-width: 2px;
        fill-rule: evenodd;
      }
    </style>
  </defs>
  <path id="Прямоугольник_скругл._углы_4_kопировать_3" data-name="Прямоугольник, скругл. углы 4 kопировать 3" class="cls-1" d="M1208.54,528.449h4.94a1.4,1.4,0,0,1,1.41,1.4v4.9a1.4,1.4,0,0,1-1.41,1.4h-4.94a1.413,1.413,0,0,1-1.42-1.4v-4.9A1.413,1.413,0,0,1,1208.54,528.449Zm8.46,0h4.94a1.413,1.413,0,0,1,1.42,1.4v4.9a1.413,1.413,0,0,1-1.42,1.4H1217a1.4,1.4,0,0,1-1.41-1.4v-4.9A1.4,1.4,0,0,1,1217,528.449Zm-8.46,8.4h4.94a1.4,1.4,0,0,1,1.41,1.4v4.9a1.4,1.4,0,0,1-1.41,1.4h-4.94a1.413,1.413,0,0,1-1.42-1.4v-4.9A1.412,1.412,0,0,1,1208.54,536.849Zm8.46,0h4.94a1.412,1.412,0,0,1,1.42,1.4v4.9a1.413,1.413,0,0,1-1.42,1.4H1217a1.4,1.4,0,0,1-1.41-1.4v-4.9A1.4,1.4,0,0,1,1217,536.849Z" transform="translate(-1206.12 -527.438)"/>
</svg>
